<svg xmlns="http://www.w3.org/2000/svg" style="display: none;">

    <symbol id="upload" viewBox="0 0 24 24" fill="none" stroke="currentColor" stroke-width="2"
        stroke-linecap="round" stroke-linejoin="round">
        <path d="M21 15v4a2 2 0 0 1-2 2H5a2 2 0 0 1-2-2v-4"></path>
        <polyline points="17 8 12 3 7 8"></polyline>
        <line x1="12" y1="3" x2="12" y2="15"></line>
    </symbol>

    <symbol id="remove-bg" viewBox="0 0 24 24" fill="none" stroke="currentColor" stroke-width="2"
        stroke-linecap="round" stroke-linejoin="round">
        <path d="M21 3L21.7 5.5L24 6.5L21.7 7.5L21 10L20.3 7.5L18 6.5L20.3 5.5L21 3Z" fill="#333333" />
        <path d="M4 3L4.7 5.5L7 6.5L4.7 7.5L4 10L3.3 7.5L1 6.5L3.3 5.5L4 3Z" fill="#333333" />
        <path
            d="M17.5 12L17.9 13.3L19.5 13.75L17.9 14.2L17.5 15.5L17.1 14.2L15.5 13.75L17.1 13.3L17.5 12Z"
            fill="#333333" />

        <circle cx="12" cy="10.5" r="4.5" fill="white" stroke="#333333" stroke-width="1.75" />
        <path d="M4.5 22C4.5 17.5 8 15.5 12 15.5C16 15.5 19.5 17.5 19.5 22" stroke="#333333"
            stroke-width="1.75" stroke-linecap="round" fill="white" />
    </symbol>

    <symbol id="undo" viewBox="0 0 24 24" fill="none" stroke="currentColor" stroke-width="2"
        stroke-linecap="round" stroke-linejoin="round">
        <path d="M3 7v6h6"></path>
        <path d="M21 17a9 9 0 0 0-9-9 9 9 0 0 0-6 2.3L3 13"></path>
    </symbol>

    <symbol id="redo" viewBox="0 0 24 24" fill="none" stroke="currentColor" stroke-width="2"
        stroke-linecap="round" stroke-linejoin="round">
        <path d="M21 7v6h-6"></path>
        <path d="M3 17a9 9 0 0 1 9-9 9 9 0 0 1 6 2.3L21 13"></path>
    </symbol>

    <symbol id="clear" viewBox="0 0 24 24" fill="none" stroke="currentColor" stroke-width="2"
        stroke-linecap="round" stroke-linejoin="round">
        <polyline points="3 6 5 6 21 6"></polyline>
        <path d="M19 6v14a2 2 0 0 1-2 2H7a2 2 0 0 1-2-2V6m3 0V4a2 2 0 0 1 2-2h4a2 2 0 0 1 2 2v2"></path>
    </symbol>

    <symbol id="eraser" viewBox="0 0 24 24" fill="none" stroke="currentColor" stroke-width="2"
        stroke-linecap="round" stroke-linejoin="round">
        <path d="M20 20H7L3 16C2 15 2 13 3 12L13 2L22 11L18 15"></path>
        <line x1="11" y1="11" x2="20" y2="20"></line>
    </symbol>

    <symbol id="split" viewBox="0 0 24 24" fill="none" stroke="currentColor" stroke-width="2"
        stroke-linecap="round" stroke-linejoin="round">
        <path d="M2 3v3h20v-3"></path>
        <path d="M2 21v-3h20v3"></path>
        <path d="M4 12h.01 M8 12h.01 M12 12h.01 M16 12h.01 M20 12h.01"></path>
    </symbol>

    <symbol id="delete" viewBox="0 0 24 24" fill="none" stroke="currentColor" stroke-width="2"
        stroke-linecap="round" stroke-linejoin="round">
        <line x1="18" y1="6" x2="6" y2="18"></line>
        <line x1="6" y1="6" x2="18" y2="18"></line>
    </symbol>

    <symbol id="layers" viewBox="0 0 24 24" fill="none" stroke="currentColor" stroke-width="2"
        stroke-linecap="round" stroke-linejoin="round">
        <polygon points="12 2 2 7 12 12 22 7 12 2"></polygon>
        <polyline points="2 17 12 22 22 17"></polyline>
        <polyline points="2 12 12 17 22 12"></polyline>
    </symbol>

    <symbol id="copy" viewBox="0 0 24 24" fill="none" stroke="currentColor" stroke-width="2"
        stroke-linecap="round" stroke-linejoin="round">
        <rect x="9" y="9" width="13" height="13" rx="2" ry="2"></rect>
        <path d="M5 15H4a2 2 0 0 1-2-2V4a2 2 0 0 1 2-2h9a2 2 0 0 1 2 2v1"></path>
    </symbol>

    <symbol id="download" viewBox="0 0 24 24" fill="none" stroke="currentColor" stroke-width="2"
        stroke-linecap="round" stroke-linejoin="round">
        <path d="M3 15v4c0 1.1.9 2 2 2h14a2 2 0 0 0 2-2v-4M17 9l-5 5-5-5M12 12.8V2.5" />
    </symbol>

    <symbol id="flip-h" viewBox="0 0 24 24" fill="none" stroke="currentColor"
        stroke-width="2" stroke-linecap="round" stroke-linejoin="round">
        <path d="M3 12h18M12 3v18M18 15l3-3-3-3M6 9l-3 3 3 3" />
    </symbol>


    <symbol id="merge" viewBox="0 0 24 24" fill="none" stroke="currentColor" stroke-width="2"
        stroke-linecap="round" stroke-linejoin="round">
        <path d="M9 3v18"></path>
        <path d="M15 3v18"></path>
        <path d="M2 12h5"></path>
        <path d="M4 9l3 3-3 3"></path>
        <path d="M22 12h-5"></path>
        <path d="M20 9l-3 3 3 3"></path>
    </symbol>

</svg>